<svg width="208" height="204" viewBox="0 0 208 204" fill="none" xmlns="http://www.w3.org/2000/svg">
<g clip-path="url(#clip0_93003_49)">
<path d="M0 102C0 45.667 45.667 0 102 0H106C162.333 0 208 45.667 208 102V102C208 158.333 162.333 204 106 204H102C45.667 204 0 158.333 0 102V102Z" fill="#1E1E1E"/>
<g filter="url(#filter0_di_93003_49)">
<path d="M0 0H208V204H0V0Z" fill="url(#paint0_linear_93003_49)"/>
</g>
<path d="M81.25 183.417C43.3333 193.792 43.3333 166.125 28.1667 162.667M134.333 204.167V177.399C134.618 174.101 134.129 170.785 132.9 167.673C131.671 164.56 129.73 161.722 127.205 159.347C151.017 156.926 176.042 148.695 176.042 110.93C176.04 101.273 171.967 91.9866 164.667 84.9925C168.124 76.5438 167.879 67.2052 163.984 58.9166C163.984 58.9166 155.036 56.4958 134.333 69.1533C116.952 64.8568 98.6309 64.8568 81.25 69.1533C60.5475 56.4958 51.5992 58.9166 51.5992 58.9166C47.7042 67.2052 47.4598 76.5438 50.9167 84.9925C43.5618 92.0385 39.485 101.409 39.5417 111.137C39.5417 148.626 64.5667 156.857 88.3783 159.554C85.8834 161.906 83.9593 164.71 82.7311 167.784C81.5029 170.859 80.9983 174.135 81.25 177.399V204.167" stroke="#1E1E1E" stroke-width="4" stroke-linecap="round" stroke-linejoin="round"/>
</g>
<defs>
<filter id="filter0_di_93003_49" x="-1" y="-1" width="210" height="208.827" filterUnits="userSpaceOnUse" color-interpolation-filters="sRGB">
<feFlood flood-opacity="0" result="BackgroundImageFix"/>
<feColorMatrix in="SourceAlpha" type="matrix" values="0 0 0 0 0 0 0 0 0 0 0 0 0 0 0 0 0 0 127 0" result="hardAlpha"/>
<feMorphology radius="1" operator="dilate" in="SourceAlpha" result="effect1_dropShadow_93003_49"/>
<feOffset/>
<feComposite in2="hardAlpha" operator="out"/>
<feColorMatrix type="matrix" values="0 0 0 0 0.784314 0 0 0 0 0.858824 0 0 0 0 0.917647 0 0 0 1 0"/>
<feBlend mode="normal" in2="BackgroundImageFix" result="effect1_dropShadow_93003_49"/>
<feBlend mode="normal" in="SourceGraphic" in2="effect1_dropShadow_93003_49" result="shape"/>
<feColorMatrix in="SourceAlpha" type="matrix" values="0 0 0 0 0 0 0 0 0 0 0 0 0 0 0 0 0 0 127 0" result="hardAlpha"/>
<feOffset dy="3.82745"/>
<feGaussianBlur stdDeviation="4"/>
<feComposite in2="hardAlpha" operator="arithmetic" k2="-1" k3="1"/>
<feColorMatrix type="matrix" values="0 0 0 0 0.0470588 0 0 0 0 0.286275 0 0 0 0 0.52549 0 0 0 0.04 0"/>
<feBlend mode="normal" in2="shape" result="effect2_innerShadow_93003_49"/>
</filter>
<linearGradient id="paint0_linear_93003_49" x1="104" y1="0" x2="104" y2="204" gradientUnits="userSpaceOnUse">
<stop stop-color="#EBF3FA"/>
<stop offset="1" stop-color="#DFEDFA"/>
</linearGradient>
<clipPath id="clip0_93003_49">
<path d="M0 102C0 45.667 45.667 0 102 0H106C162.333 0 208 45.667 208 102V102C208 158.333 162.333 204 106 204H102C45.667 204 0 158.333 0 102V102Z" fill="white"/>
</clipPath>
</defs>
</svg>
